<?xml version="1.0"?>
<svg xmlns="http://www.w3.org/2000/svg" viewBox="25,50,850,525" width="850" height="525">
<defs>
<style>
svg {
	stroke: #000000;
	stroke-width: 4;
	stroke-linecap: butt;
	stroke-linejoin: bevel;
}
.b {
	fill: #FFF;
}
.p {
	fill: #FA7;
}
.n {
	fill: #7AF;
}
.o {
	fill: #AAA;
}
.g {
	fill: #EEE;
}
.j {
	fill: #000;
}
.w {
	fill: none;
}
.l, .s {
	fill: #000;
	stroke: none;
	text-anchor: middle;
	dominant-baseline: middle;
	font: 50px sans-serif;
}
.s {
	font-size: 40px;
}
.sub {
	font-size: .75em;
	baseline-shift: -.125em;
}
</style>
</defs>
<rect class="b" x="-100%" y="-100%" width="300%" height="300%" />
<rect class="p" x="-50" y="400" width="1000" height="250" />
<path class="n" d="M100,400c0,125,200,125,200,0Z" />
<path class="n" d="M600,400c0,125,200,125,200,0Z" />
<rect class="o" x="250" y="350" width="400" height="50" />
<rect class="g" x="250" y="250" width="400" height="100" />
<circle class="j" cx="175" cy="400" r="10" />
<circle class="j" cx="725" cy="400" r="10" />
<circle class="j" cx="450" cy="250" r="10" />
<path class="w" d="M175,400s0-75-50-75" />
<path class="w" d="M725,400s0-75,50-75" />
<path class="w" d="M450,250v-100" />
<text class="l" x="450" y="500">P</text>
<text class="l" x="200" y="450">N</text>
<text class="l" x="700" y="450">N</text>
<text class="l" x="100" y="325">S</text>
<text class="l" x="800" y="325">D</text>
<text class="l" x="450" y="125">G</text>
<text class="s" x="450" y="380">SiO<tspan class="s sub">2</tspan></text>
</svg>
